<svg width="415" height="40" viewBox="0 0 415 40" fill="none" xmlns="http://www.w3.org/2000/svg">
<rect width="40" height="40" rx="20" fill="white"/>
<path d="M12.0998 9.80005H15.0998C15.6031 9.80005 16.1625 9.97027 16.5461 10.3538L16.5656 10.3733L16.5881 10.3909C16.9682 10.6952 17.2188 11.1686 17.3049 11.7708C17.4089 12.6971 17.6171 13.6383 18.0353 14.5852V14.5862C18.1892 14.9711 18.1966 15.3669 18.1096 15.802C18.0349 16.1755 17.8041 16.5826 17.5344 16.9504L16.6926 17.6057L16.343 17.8772L16.5715 18.2571C17.8137 20.3274 19.5725 22.0862 21.6428 23.3284L21.9777 23.5295L22.2531 23.2532L23.1535 22.3538C23.4742 22.0331 23.777 21.8774 24.2824 21.7932L24.2902 21.7922L24.298 21.7903C24.7332 21.7033 25.129 21.7106 25.5139 21.8645L25.5275 21.8694L25.5422 21.8743C26.4648 22.1818 27.2832 22.3863 28.1916 22.5881L28.2101 22.592L28.2297 22.595C28.8319 22.6811 29.3053 22.9325 29.6096 23.3127C29.9587 23.7493 30.2004 24.3423 30.2004 24.8V27.8C30.2004 28.1099 30.124 28.436 30.0373 28.7043C29.8546 29.0648 29.7066 29.2614 29.5226 29.384C29.4337 29.4433 29.3472 29.5077 29.2717 29.5647C29.1926 29.6244 29.1239 29.6777 29.0529 29.7268C28.9116 29.8246 28.7943 29.8864 28.6789 29.9153L28.5441 29.9485L28.4465 30.0461C28.3615 30.1311 28.2009 30.2004 28.0002 30.2004H27.7287C24.6182 29.9058 21.6041 28.835 18.9777 27.0842L18.9699 27.0793L18.5168 26.7805C16.2763 25.2603 14.3845 23.3172 12.9211 21.0305C11.2669 18.4023 10.1939 15.3839 9.79999 12.2668C9.80031 11.8561 9.8074 11.5595 9.87421 11.3586L9.88007 11.3401L9.88495 11.3215C9.95725 11.0323 10.0988 10.8088 10.3537 10.554C10.6755 10.2322 10.8793 10.0461 11.1213 9.9856L11.175 9.97192L11.2238 9.94751C11.5098 9.80455 11.7043 9.80005 12.0998 9.80005ZM12.0998 10.3C12.0097 10.3 11.8912 10.299 11.7678 10.3196C11.6667 10.3364 11.5737 10.3675 11.4777 10.4084C11.3271 10.4268 11.1806 10.4798 11.05 10.5842C10.9313 10.6791 10.8506 10.7968 10.7922 10.9016C10.6906 11.006 10.5677 11.1455 10.4523 11.3762L10.3996 11.4817V12.1262L10.4025 12.1516C10.7105 15.1289 11.7374 18.1086 13.4865 20.6809C15.0238 23.0357 17.0715 25.0822 19.4269 26.6184L19.4308 26.6213C21.9974 28.2638 24.9673 29.2867 27.9318 29.6956L27.966 29.7004H28.0002C28.0903 29.7004 28.2088 29.7015 28.3322 29.6809C28.4681 29.6583 28.5913 29.6134 28.7238 29.5471C28.7601 29.529 28.7906 29.5155 28.8342 29.4963C28.872 29.4797 28.933 29.453 28.9943 29.4163C29.1482 29.3239 29.2598 29.1977 29.3469 29.0237C29.381 28.9553 29.4126 28.9103 29.4406 28.8752C29.471 28.8373 29.5024 28.8046 29.5539 28.7532L29.6105 28.6965L29.6476 28.6233C29.7137 28.4911 29.7578 28.3682 29.7805 28.2327C29.801 28.1092 29.8 27.9898 29.8 27.8997V24.8997C29.7999 24.5005 29.6686 24.0612 29.3537 23.7463C29.1289 23.5216 28.7271 23.223 28.2492 23.2034L28.2502 23.2024C27.3096 23.1083 26.3592 22.8253 25.3537 22.5237C25.1937 22.4571 25.0289 22.4282 24.8996 22.4153C24.8229 22.4076 24.7474 22.4034 24.6789 22.4016L24.5002 22.3997C24.2464 22.3997 24.04 22.5223 23.9348 22.5881C23.7799 22.6849 23.7507 22.7158 23.676 22.7532L23.6037 22.7893L22.2463 24.1467C22.2283 24.1646 22.1788 24.1959 22.1115 24.2063C22.0496 24.2158 22.006 24.2026 21.9777 24.1838L21.9641 24.175L21.9494 24.1672L21.4816 23.886C19.1795 22.4532 17.2292 20.4468 15.8654 18.1038C15.8434 18.023 15.8352 17.9461 15.8439 17.8889C15.8527 17.8321 15.8692 17.821 15.8771 17.8157L15.9182 17.7883L17.3107 16.3958L17.3469 16.3235L17.3488 16.3215V16.3206L17.3498 16.3186V16.3176L17.3517 16.3157V16.3147L17.3527 16.3127V16.3118L17.3547 16.3098V16.3088L17.3557 16.3069V16.3059L17.3576 16.304V16.303L17.3586 16.301V16.3L17.3605 16.2981V16.2971L17.3615 16.2952V16.2942L17.3635 16.2922V16.2913L17.3644 16.2893V16.2883L17.3664 16.2864V16.2854L17.3674 16.2834V16.2825L17.3693 16.2805V16.2795L17.3703 16.2776V16.2766L17.3723 16.2747V16.2737L17.3732 16.2717V16.2708L17.3752 16.2688V16.2678L17.3762 16.2659V16.2649L17.3781 16.2629V16.262L17.3791 16.26V16.259L17.381 16.2571V16.2561L17.382 16.2542V16.2532L17.384 16.2512V16.2502L17.3849 16.2483V16.2473L17.3869 16.2454V16.2444L17.3879 16.2424V16.2415L17.3898 16.2395V16.2385L17.3908 16.2366V16.2356L17.3928 16.2336V16.2327L17.3937 16.2307V16.2297L17.3957 16.2278V16.2268L17.3967 16.2249V16.2239L17.3986 16.2219V16.2209L17.3996 16.219V16.218L17.4016 16.2161V16.2151L17.4025 16.2131V16.2122L17.4045 16.2102V16.2092L17.4055 16.2073V16.2063L17.4074 16.2043V16.2034L17.4084 16.2014V16.2004L17.4103 16.1985V16.1975L17.4113 16.1956V16.1946L17.4133 16.1926V16.1917L17.4142 16.1897V16.1887L17.4162 16.1868V16.1858L17.4172 16.1838V16.1829L17.4191 16.1809V16.1799L17.4201 16.178V16.177L17.4221 16.175V16.1741L17.423 16.1721V16.1711L17.425 16.1692V16.1682L17.426 16.1663V16.1653L17.4279 16.1633V16.1624L17.4289 16.1604V16.1594L17.4308 16.1575V16.1565L17.4318 16.1545V16.1536L17.4338 16.1516V16.1506L17.4348 16.1487V16.1477L17.4367 16.1458V16.1448L17.4377 16.1428V16.1418L17.4396 16.1399V16.1389L17.4406 16.137V16.136L17.4426 16.134V16.1331L17.4435 16.1311V16.1301L17.4455 16.1282V16.1272L17.4465 16.1252V16.1243L17.4484 16.1223V16.1213L17.4494 16.1194V16.1184L17.4514 16.1165V16.1155L17.4523 16.1135V16.1125L17.4543 16.1106V16.1096L17.4553 16.1077V16.1067L17.4572 16.1047V16.1038L17.4582 16.1018V16.1008L17.4601 16.0989V16.0979L17.4611 16.0959V16.095L17.4631 16.093V16.092L17.4641 16.0901V16.0891L17.466 16.0872V16.0862L17.467 16.0842V16.0833L17.4689 16.0813V16.0803L17.4699 16.0784V16.0774L17.4719 16.0754V16.0745L17.4728 16.0725V16.0715L17.4748 16.0696V16.0686L17.4758 16.0667V16.0657L17.4777 16.0637V16.0627L17.4787 16.0608V16.0598L17.4807 16.0579V16.0569L17.4816 16.0549V16.054L17.4836 16.052V16.051L17.4846 16.0491V16.0481L17.4865 16.0461V16.0452L17.4875 16.0432V16.0422L17.4894 16.0403V16.0393L17.4904 16.0374V16.0364L17.4924 16.0344V16.0334L17.4933 16.0315V16.0305L17.4953 16.0286V16.0276L17.4963 16.0256V16.0247L17.4982 16.0227V16.0217L17.4992 16.0198V16.0188L17.5012 16.0168V16.0159L17.5021 16.0139V16.0129L17.5041 16.011V16.01L17.5051 16.0081V16.0071L17.507 16.0051V16.0042L17.508 16.0022V16.0012L17.5099 15.9993V15.9983L17.5109 15.9963V15.9954L17.5129 15.9934V15.9924L17.5139 15.9905V15.9895L17.5158 15.9875V15.9866L17.5168 15.9846V15.9836L17.5187 15.9817V15.9807L17.5197 15.9788V15.9778L17.5217 15.9758V15.9749L17.5226 15.9729V15.9719L17.5246 15.97V15.969L17.5256 15.967V15.9661L17.5275 15.9641V15.9631L17.5285 15.9612V15.9602L17.5305 15.9583V15.9573L17.5314 15.9553V15.9543L17.5334 15.9524V15.9514L17.5344 15.9495V15.9485L17.5363 15.9465V15.9456L17.5373 15.9436V15.9426L17.5392 15.9407V15.9397L17.5402 15.9377V15.9368L17.5422 15.9348V15.9338L17.5432 15.9319V15.9309L17.5451 15.929V15.928L17.5461 15.926V15.925L17.548 15.9231V15.9221L17.549 15.9202V15.9192L17.551 15.9172V15.9163L17.5519 15.9143V15.9133L17.5539 15.9114V15.9104L17.5549 15.9084V15.9075L17.5568 15.9055V15.9045L17.5578 15.9026V15.9016L17.5598 15.8997V15.8987L17.5607 15.8967V15.8958L17.5627 15.8938V15.8928L17.5637 15.8909V15.8899L17.5656 15.8879V15.887L17.5666 15.885V15.884L17.5685 15.8821V15.8811L17.5695 15.8792V15.8782L17.5715 15.8762V15.8752L17.5724 15.8733V15.8723L17.5744 15.8704V15.8694L17.5754 15.8674V15.8665L17.5773 15.8645V15.8635L17.5783 15.8616V15.8606L17.5803 15.8586V15.8577L17.5812 15.8557V15.8547L17.5832 15.8528V15.8518L17.5842 15.8499V15.8489L17.5861 15.8469V15.8459L17.5871 15.844V15.843L17.5891 15.8411V15.8401L17.59 15.8381V15.8372L17.592 15.8352V15.8342L17.593 15.8323V15.8313L17.5949 15.8293V15.8284L17.5959 15.8264V15.8254L17.5978 15.8235V15.8225L17.5988 15.8206V15.8196L17.6008 15.8176V15.8167L17.6017 15.8147V15.8137L17.6037 15.8118V15.8108L17.6047 15.8088V15.8079L17.6066 15.8059V15.8049L17.6076 15.803V15.802L17.6096 15.8V15.7991L17.6105 15.7971V15.7961L17.6125 15.7942V15.7932L17.6135 15.7913V15.7903L17.6154 15.7883V15.7874L17.6164 15.7854V15.7844L17.6183 15.7825V15.7815L17.6193 15.7795V15.7786L17.6213 15.7766V15.7756L17.6223 15.7737V15.7727L17.6242 15.7708V15.7698L17.6252 15.7678V15.7668L17.6271 15.7649V15.7639L17.6281 15.762V15.761L17.6301 15.759V15.7581L17.631 15.7561V15.7551L17.633 15.7532V15.7522L17.634 15.7502V15.7493L17.6359 15.7473V15.7463L17.6369 15.7444V15.7434L17.6389 15.7415V15.7405L17.6398 15.7385V15.7375L17.6418 15.7356V15.7346L17.6428 15.7327V15.7317L17.6447 15.7297V15.7288L17.6457 15.7268V15.7258L17.6476 15.7239L17.7004 15.6184V15.5002C17.7004 15.403 17.7001 15.2533 17.6848 15.0999C17.6709 14.962 17.6394 14.7839 17.5627 14.6145H17.5646C17.1864 13.669 16.9943 12.717 16.8976 11.7502H16.8957C16.8758 11.2728 16.5783 10.8714 16.3537 10.6467L16.2697 10.5627L16.1584 10.5256L15.9289 10.4504C15.6843 10.3737 15.3966 10.3 15.0998 10.3H12.0998Z" fill="#3D3D3D" stroke="#3D3D3D"/>
<path d="M57.3352 26.2216C56.3996 26.2216 55.5966 25.9848 54.9261 25.5114C54.2595 25.0341 53.7462 24.3466 53.3864 23.4489C53.0303 22.5473 52.8523 21.4621 52.8523 20.1932C52.8561 18.9242 53.036 17.8447 53.392 16.9545C53.7519 16.0606 54.2652 15.3788 54.9318 14.9091C55.6023 14.4394 56.4034 14.2045 57.3352 14.2045C58.267 14.2045 59.0682 14.4394 59.7386 14.9091C60.4091 15.3788 60.9223 16.0606 61.2784 16.9545C61.6383 17.8485 61.8182 18.928 61.8182 20.1932C61.8182 21.4659 61.6383 22.553 61.2784 23.4545C60.9223 24.3523 60.4091 25.0379 59.7386 25.5114C59.072 25.9848 58.2708 26.2216 57.3352 26.2216ZM57.3352 24.4432C58.0625 24.4432 58.6364 24.0852 59.0568 23.3693C59.4811 22.6496 59.6932 21.5909 59.6932 20.1932C59.6932 19.2689 59.5966 18.4924 59.4034 17.8636C59.2102 17.2348 58.9375 16.7614 58.5852 16.4432C58.233 16.1212 57.8163 15.9602 57.3352 15.9602C56.6117 15.9602 56.0398 16.3201 55.6193 17.0398C55.1989 17.7557 54.9867 18.8068 54.983 20.1932C54.9792 21.1212 55.072 21.9015 55.2614 22.5341C55.4545 23.1667 55.7273 23.6439 56.0795 23.9659C56.4318 24.2841 56.8504 24.4432 57.3352 24.4432ZM67.8423 26.1591C66.9976 26.1591 66.2476 26.017 65.5923 25.733C64.9408 25.4489 64.4295 25.0606 64.0582 24.5682C63.6908 24.072 63.509 23.5095 63.5128 22.8807C63.509 22.392 63.6151 21.9432 63.831 21.5341C64.0469 21.125 64.3385 20.7841 64.706 20.5114C65.0772 20.2348 65.4901 20.0587 65.9446 19.983V19.9034C65.3461 19.7708 64.8613 19.4659 64.4901 18.9886C64.1226 18.5076 63.9408 17.9527 63.9446 17.3239C63.9408 16.7254 64.1075 16.1913 64.4446 15.7216C64.7817 15.2519 65.2438 14.8826 65.831 14.6136C66.4181 14.3409 67.0885 14.2045 67.8423 14.2045C68.5885 14.2045 69.2533 14.3409 69.8366 14.6136C70.4238 14.8826 70.8859 15.2519 71.223 15.7216C71.5639 16.1913 71.7344 16.7254 71.7344 17.3239C71.7344 17.9527 71.5469 18.5076 71.1719 18.9886C70.8007 19.4659 70.3215 19.7708 69.7344 19.9034V19.983C70.1889 20.0587 70.598 20.2348 70.9616 20.5114C71.3291 20.7841 71.6207 21.125 71.8366 21.5341C72.0563 21.9432 72.1662 22.392 72.1662 22.8807C72.1662 23.5095 71.9806 24.072 71.6094 24.5682C71.2382 25.0606 70.7268 25.4489 70.0753 25.733C69.4276 26.017 68.6832 26.1591 67.8423 26.1591ZM67.8423 24.5341C68.2779 24.5341 68.6567 24.4602 68.9787 24.3125C69.3007 24.161 69.5507 23.9489 69.7287 23.6761C69.9067 23.4034 69.9976 23.089 70.0014 22.733C69.9976 22.3617 69.901 22.0341 69.7116 21.75C69.526 21.4621 69.2704 21.2367 68.9446 21.0739C68.6226 20.911 68.2552 20.8295 67.8423 20.8295C67.4257 20.8295 67.0545 20.911 66.7287 21.0739C66.4029 21.2367 66.1454 21.4621 65.956 21.75C65.7704 22.0341 65.6795 22.3617 65.6832 22.733C65.6795 23.089 65.7666 23.4034 65.9446 23.6761C66.1226 23.9451 66.3726 24.1553 66.6946 24.3068C67.0204 24.4583 67.4029 24.5341 67.8423 24.5341ZM67.8423 19.233C68.1984 19.233 68.5128 19.161 68.7855 19.017C69.062 18.8731 69.2798 18.6723 69.4389 18.4148C69.598 18.1572 69.6795 17.8598 69.6832 17.5227C69.6795 17.1894 69.5999 16.8977 69.4446 16.6477C69.2893 16.3939 69.0734 16.1989 68.7969 16.0625C68.5204 15.9223 68.2022 15.8523 67.8423 15.8523C67.4749 15.8523 67.151 15.9223 66.8707 16.0625C66.5942 16.1989 66.3783 16.3939 66.223 16.6477C66.0715 16.8977 65.9976 17.1894 66.0014 17.5227C65.9976 17.8598 66.0734 18.1572 66.2287 18.4148C66.3878 18.6686 66.6056 18.8693 66.8821 19.017C67.1624 19.161 67.4825 19.233 67.8423 19.233ZM78.3352 26.2216C77.3996 26.2216 76.5966 25.9848 75.9261 25.5114C75.2595 25.0341 74.7462 24.3466 74.3864 23.4489C74.0303 22.5473 73.8523 21.4621 73.8523 20.1932C73.8561 18.9242 74.036 17.8447 74.392 16.9545C74.7519 16.0606 75.2652 15.3788 75.9318 14.9091C76.6023 14.4394 77.4034 14.2045 78.3352 14.2045C79.267 14.2045 80.0682 14.4394 80.7386 14.9091C81.4091 15.3788 81.9223 16.0606 82.2784 16.9545C82.6383 17.8485 82.8182 18.928 82.8182 20.1932C82.8182 21.4659 82.6383 22.553 82.2784 23.4545C81.9223 24.3523 81.4091 25.0379 80.7386 25.5114C80.072 25.9848 79.2708 26.2216 78.3352 26.2216ZM78.3352 24.4432C79.0625 24.4432 79.6364 24.0852 80.0568 23.3693C80.4811 22.6496 80.6932 21.5909 80.6932 20.1932C80.6932 19.2689 80.5966 18.4924 80.4034 17.8636C80.2102 17.2348 79.9375 16.7614 79.5852 16.4432C79.233 16.1212 78.8163 15.9602 78.3352 15.9602C77.6117 15.9602 77.0398 16.3201 76.6193 17.0398C76.1989 17.7557 75.9867 18.8068 75.983 20.1932C75.9792 21.1212 76.072 21.9015 76.2614 22.5341C76.4545 23.1667 76.7273 23.6439 77.0795 23.9659C77.4318 24.2841 77.8504 24.4432 78.3352 24.4432ZM89.0071 26.2216C88.0715 26.2216 87.2685 25.9848 86.598 25.5114C85.9313 25.0341 85.4181 24.3466 85.0582 23.4489C84.7022 22.5473 84.5241 21.4621 84.5241 20.1932C84.5279 18.9242 84.7079 17.8447 85.0639 16.9545C85.4238 16.0606 85.937 15.3788 86.6037 14.9091C87.2741 14.4394 88.0753 14.2045 89.0071 14.2045C89.9389 14.2045 90.7401 14.4394 91.4105 14.9091C92.081 15.3788 92.5942 16.0606 92.9503 16.9545C93.3101 17.8485 93.4901 18.928 93.4901 20.1932C93.4901 21.4659 93.3101 22.553 92.9503 23.4545C92.5942 24.3523 92.081 25.0379 91.4105 25.5114C90.7438 25.9848 89.9427 26.2216 89.0071 26.2216ZM89.0071 24.4432C89.7344 24.4432 90.3082 24.0852 90.7287 23.3693C91.1529 22.6496 91.3651 21.5909 91.3651 20.1932C91.3651 19.2689 91.2685 18.4924 91.0753 17.8636C90.8821 17.2348 90.6094 16.7614 90.2571 16.4432C89.9048 16.1212 89.4882 15.9602 89.0071 15.9602C88.2836 15.9602 87.7116 16.3201 87.2912 17.0398C86.8707 17.7557 86.6586 18.8068 86.6548 20.1932C86.651 21.1212 86.7438 21.9015 86.9332 22.5341C87.1264 23.1667 87.3991 23.6439 87.7514 23.9659C88.1037 24.2841 88.5223 24.4432 89.0071 24.4432ZM99.7727 26L104.722 16.2045V16.125H98.9773V14.3636H106.903V16.1648L101.96 26H99.7727ZM109.476 26L114.425 16.2045V16.125H108.68V14.3636H116.607V16.1648L111.663 26H109.476ZM123.173 14.3636V26H121.065V16.4148H120.997L118.276 18.1534V16.2216L121.168 14.3636H123.173ZM134.142 26.1591C133.384 26.1591 132.706 26.017 132.108 25.733C131.509 25.4451 131.034 25.0511 130.682 24.5511C130.333 24.0511 130.148 23.4792 130.125 22.8352H132.17C132.208 23.3125 132.415 23.7027 132.79 24.0057C133.165 24.3049 133.616 24.4545 134.142 24.4545C134.555 24.4545 134.922 24.3598 135.244 24.1705C135.566 23.9811 135.82 23.7178 136.006 23.3807C136.191 23.0436 136.282 22.6591 136.278 22.2273C136.282 21.7879 136.189 21.3977 136 21.0568C135.811 20.7159 135.551 20.4489 135.222 20.2557C134.892 20.0587 134.513 19.9602 134.085 19.9602C133.737 19.9564 133.394 20.0208 133.057 20.1534C132.72 20.286 132.453 20.4602 132.256 20.6761L130.352 20.3636L130.96 14.3636H137.71V16.125H132.705L132.369 19.2102H132.438C132.653 18.9564 132.958 18.7462 133.352 18.5795C133.746 18.4091 134.178 18.3239 134.648 18.3239C135.352 18.3239 135.981 18.4905 136.534 18.8239C137.087 19.1534 137.523 19.608 137.841 20.1875C138.159 20.767 138.318 21.4299 138.318 22.1761C138.318 22.9451 138.14 23.6307 137.784 24.233C137.432 24.8314 136.941 25.303 136.312 25.6477C135.688 25.9886 134.964 26.1591 134.142 26.1591ZM144.523 26.2216C143.587 26.2216 142.784 25.9848 142.114 25.5114C141.447 25.0341 140.934 24.3466 140.574 23.4489C140.218 22.5473 140.04 21.4621 140.04 20.1932C140.044 18.9242 140.223 17.8447 140.58 16.9545C140.939 16.0606 141.453 15.3788 142.119 14.9091C142.79 14.4394 143.591 14.2045 144.523 14.2045C145.455 14.2045 146.256 14.4394 146.926 14.9091C147.597 15.3788 148.11 16.0606 148.466 16.9545C148.826 17.8485 149.006 18.928 149.006 20.1932C149.006 21.4659 148.826 22.553 148.466 23.4545C148.11 24.3523 147.597 25.0379 146.926 25.5114C146.259 25.9848 145.458 26.2216 144.523 26.2216ZM144.523 24.4432C145.25 24.4432 145.824 24.0852 146.244 23.3693C146.669 22.6496 146.881 21.5909 146.881 20.1932C146.881 19.2689 146.784 18.4924 146.591 17.8636C146.398 17.2348 146.125 16.7614 145.773 16.4432C145.42 16.1212 145.004 15.9602 144.523 15.9602C143.799 15.9602 143.227 16.3201 142.807 17.0398C142.386 17.7557 142.174 18.8068 142.17 20.1932C142.167 21.1212 142.259 21.9015 142.449 22.5341C142.642 23.1667 142.915 23.6439 143.267 23.9659C143.619 24.2841 144.038 24.4432 144.523 24.4432ZM154.939 26.1591C154.181 26.1591 153.503 26.017 152.905 25.733C152.306 25.4451 151.831 25.0511 151.479 24.5511C151.13 24.0511 150.945 23.4792 150.922 22.8352H152.967C153.005 23.3125 153.212 23.7027 153.587 24.0057C153.962 24.3049 154.412 24.4545 154.939 24.4545C155.352 24.4545 155.719 24.3598 156.041 24.1705C156.363 23.9811 156.617 23.7178 156.803 23.3807C156.988 23.0436 157.079 22.6591 157.075 22.2273C157.079 21.7879 156.986 21.3977 156.797 21.0568C156.607 20.7159 156.348 20.4489 156.018 20.2557C155.689 20.0587 155.31 19.9602 154.882 19.9602C154.534 19.9564 154.191 20.0208 153.854 20.1534C153.517 20.286 153.25 20.4602 153.053 20.6761L151.149 20.3636L151.757 14.3636H158.507V16.125H153.501L153.166 19.2102H153.234C153.45 18.9564 153.755 18.7462 154.149 18.5795C154.543 18.4091 154.975 18.3239 155.445 18.3239C156.149 18.3239 156.778 18.4905 157.331 18.8239C157.884 19.1534 158.32 19.608 158.638 20.1875C158.956 20.767 159.115 21.4299 159.115 22.1761C159.115 22.9451 158.937 23.6307 158.581 24.233C158.229 24.8314 157.738 25.303 157.109 25.6477C156.484 25.9886 155.761 26.1591 154.939 26.1591ZM165.064 26.1591C164.306 26.1591 163.628 26.017 163.03 25.733C162.431 25.4451 161.956 25.0511 161.604 24.5511C161.255 24.0511 161.07 23.4792 161.047 22.8352H163.092C163.13 23.3125 163.337 23.7027 163.712 24.0057C164.087 24.3049 164.537 24.4545 165.064 24.4545C165.477 24.4545 165.844 24.3598 166.166 24.1705C166.488 23.9811 166.742 23.7178 166.928 23.3807C167.113 23.0436 167.204 22.6591 167.2 22.2273C167.204 21.7879 167.111 21.3977 166.922 21.0568C166.732 20.7159 166.473 20.4489 166.143 20.2557C165.814 20.0587 165.435 19.9602 165.007 19.9602C164.659 19.9564 164.316 20.0208 163.979 20.1534C163.642 20.286 163.375 20.4602 163.178 20.6761L161.274 20.3636L161.882 14.3636H168.632V16.125H163.626L163.291 19.2102H163.359C163.575 18.9564 163.88 18.7462 164.274 18.5795C164.668 18.4091 165.1 18.3239 165.57 18.3239C166.274 18.3239 166.903 18.4905 167.456 18.8239C168.009 19.1534 168.445 19.608 168.763 20.1875C169.081 20.767 169.24 21.4299 169.24 22.1761C169.24 22.9451 169.062 23.6307 168.706 24.233C168.354 24.8314 167.863 25.303 167.234 25.6477C166.609 25.9886 165.886 26.1591 165.064 26.1591Z" fill="white"/>
<rect x="227" width="40" height="40" rx="20" fill="#3BCE57"/>
<path d="M247.167 10.0369C249.786 10.0379 252.245 11.0571 254.094 12.908C255.942 14.7589 256.96 17.2194 256.959 19.8357C256.957 25.2345 252.563 29.6275 247.167 29.6277H247.162C245.523 29.6272 243.913 29.2164 242.483 28.4363L242.469 28.4275L242.452 28.4324L237.308 29.781L238.685 24.7556L238.69 24.738L238.681 24.7234C237.825 23.2388 237.373 21.5539 237.374 19.8279C237.376 14.4289 241.77 10.0369 247.167 10.0369ZM247.17 11.613C242.638 11.613 238.953 15.2986 238.951 19.8279C238.95 21.3799 239.385 22.8919 240.207 24.2L240.391 24.4939L239.57 27.4929L239.552 27.5623L239.621 27.5437L242.697 26.7361L242.981 26.905C244.243 27.6534 245.689 28.05 247.163 28.0505H247.167C251.695 28.0503 255.38 24.3649 255.382 19.8347C255.383 17.64 254.528 15.5757 252.977 14.0232C251.523 12.5674 249.62 11.7243 247.58 11.6238L247.17 11.613ZM243.684 15.3289C243.848 15.3289 244.011 15.3297 244.153 15.3367V15.3376C244.173 15.3387 244.195 15.3387 244.215 15.3386C244.235 15.3385 244.255 15.3384 244.275 15.3396C244.315 15.3419 244.355 15.3487 244.396 15.3679C244.477 15.4063 244.572 15.4994 244.67 15.7341C244.772 15.9799 244.946 16.4047 245.102 16.7839C245.258 17.1611 245.397 17.496 245.428 17.5603C245.487 17.6782 245.522 17.8068 245.449 17.9539C245.366 18.1196 245.328 18.2167 245.209 18.3552C245.083 18.5016 244.951 18.674 244.843 18.783C244.782 18.8429 244.713 18.9134 244.679 19.0027C244.645 19.0958 244.652 19.2033 244.728 19.3347C244.872 19.582 245.368 20.3916 246.103 21.0476C247.047 21.8893 247.847 22.1522 248.089 22.2732C248.214 22.336 248.32 22.3658 248.417 22.3542C248.515 22.3424 248.596 22.2885 248.672 22.2019C248.815 22.0386 249.287 21.4829 249.453 21.2341C249.53 21.118 249.602 21.0766 249.676 21.0681C249.754 21.0592 249.842 21.0853 249.956 21.1267C250.066 21.1668 250.422 21.3349 250.784 21.5095C251.144 21.6835 251.508 21.863 251.631 21.9246C251.756 21.9873 251.856 22.0317 251.934 22.075C252.012 22.118 252.059 22.1548 252.084 22.196L252.085 22.197C252.095 22.2138 252.106 22.2554 252.111 22.324C252.116 22.3906 252.116 22.4771 252.107 22.5789C252.09 22.7829 252.038 23.0463 251.937 23.3298C251.84 23.6031 251.553 23.8715 251.225 24.0818C250.898 24.2914 250.54 24.4363 250.312 24.4705C249.892 24.5331 249.364 24.5592 248.784 24.3748C248.428 24.2618 247.971 24.1106 247.386 23.8582C244.934 22.7987 243.331 20.328 243.206 20.1609C243.144 20.0788 242.895 19.7486 242.662 19.2888C242.428 18.8277 242.211 18.2396 242.211 17.6443C242.211 16.4528 242.835 15.8687 243.06 15.6228C243.276 15.3871 243.53 15.3289 243.684 15.3289Z" fill="white" stroke="white" stroke-width="0.0834177"/>
<path d="M280.148 26V14.3636H284.511C285.405 14.3636 286.155 14.5303 286.761 14.8636C287.371 15.197 287.831 15.6553 288.142 16.2386C288.456 16.8182 288.614 17.4773 288.614 18.2159C288.614 18.9621 288.456 19.625 288.142 20.2045C287.828 20.7841 287.364 21.2405 286.75 21.5739C286.136 21.9034 285.381 22.0682 284.483 22.0682H281.591V20.3352H284.199C284.722 20.3352 285.15 20.2443 285.483 20.0625C285.816 19.8807 286.063 19.6307 286.222 19.3125C286.384 18.9943 286.466 18.6288 286.466 18.2159C286.466 17.803 286.384 17.4394 286.222 17.125C286.063 16.8106 285.814 16.5663 285.477 16.392C285.144 16.214 284.714 16.125 284.188 16.125H282.256V26H280.148ZM290.354 26V17.2727H292.348V18.7273H292.439C292.598 18.2235 292.871 17.8352 293.257 17.5625C293.647 17.286 294.092 17.1477 294.592 17.1477C294.706 17.1477 294.833 17.1534 294.973 17.1648C295.117 17.1723 295.236 17.1856 295.331 17.2045V19.0966C295.244 19.0663 295.106 19.0398 294.916 19.017C294.731 18.9905 294.551 18.9773 294.376 18.9773C294.001 18.9773 293.664 19.0587 293.365 19.2216C293.07 19.3807 292.837 19.6023 292.666 19.8864C292.496 20.1705 292.411 20.4981 292.411 20.8693V26H290.354ZM300.202 26.1705C299.327 26.1705 298.571 25.9886 297.935 25.625C297.302 25.2576 296.815 24.7386 296.474 24.0682C296.134 23.3939 295.963 22.6004 295.963 21.6875C295.963 20.7898 296.134 20.0019 296.474 19.3239C296.819 18.642 297.3 18.1117 297.918 17.733C298.535 17.3504 299.26 17.1591 300.094 17.1591C300.632 17.1591 301.139 17.2462 301.616 17.4205C302.098 17.5909 302.522 17.8561 302.889 18.2159C303.26 18.5758 303.552 19.0341 303.764 19.5909C303.976 20.1439 304.082 20.803 304.082 21.5682V22.1989H296.929V20.8125H302.111C302.107 20.4186 302.022 20.0682 301.855 19.7614C301.688 19.4508 301.455 19.2064 301.156 19.0284C300.861 18.8504 300.516 18.7614 300.122 18.7614C299.702 18.7614 299.332 18.8636 299.014 19.0682C298.696 19.2689 298.448 19.5341 298.27 19.8636C298.096 20.1894 298.007 20.5473 298.003 20.9375V22.1477C298.003 22.6553 298.096 23.0909 298.281 23.4545C298.467 23.8144 298.726 24.0909 299.06 24.2841C299.393 24.4735 299.783 24.5682 300.23 24.5682C300.529 24.5682 300.8 24.5265 301.043 24.4432C301.285 24.3561 301.495 24.2292 301.673 24.0625C301.851 23.8958 301.986 23.6894 302.077 23.4432L303.997 23.6591C303.876 24.1667 303.645 24.6098 303.304 24.9886C302.967 25.3636 302.535 25.6553 302.009 25.8636C301.482 26.0682 300.88 26.1705 300.202 26.1705ZM309.629 26.1705C308.758 26.1705 308.01 25.9792 307.385 25.5966C306.764 25.214 306.285 24.6856 305.947 24.0114C305.614 23.3333 305.447 22.553 305.447 21.6705C305.447 20.7841 305.618 20.0019 305.959 19.3239C306.3 18.642 306.781 18.1117 307.402 17.733C308.027 17.3504 308.766 17.1591 309.618 17.1591C310.326 17.1591 310.953 17.2898 311.499 17.5511C312.048 17.8087 312.485 18.1742 312.811 18.6477C313.137 19.1174 313.322 19.6667 313.368 20.2955H311.402C311.322 19.875 311.133 19.5246 310.834 19.2443C310.538 18.9602 310.143 18.8182 309.646 18.8182C309.226 18.8182 308.857 18.9318 308.538 19.1591C308.22 19.3826 307.972 19.7045 307.794 20.125C307.62 20.5455 307.533 21.0492 307.533 21.6364C307.533 22.2311 307.62 22.7424 307.794 23.1705C307.968 23.5947 308.213 23.9223 308.527 24.1534C308.845 24.3807 309.218 24.4943 309.646 24.4943C309.949 24.4943 310.22 24.4375 310.459 24.3239C310.701 24.2064 310.904 24.0379 311.067 23.8182C311.23 23.5985 311.341 23.3314 311.402 23.017H313.368C313.319 23.6345 313.137 24.1818 312.822 24.6591C312.508 25.1326 312.08 25.5038 311.538 25.7727C310.997 26.0379 310.36 26.1705 309.629 26.1705ZM315.057 26V17.2727H317.114V26H315.057ZM316.091 16.0341C315.765 16.0341 315.485 15.9261 315.25 15.7102C315.015 15.4905 314.898 15.2273 314.898 14.9205C314.898 14.6098 315.015 14.3466 315.25 14.1307C315.485 13.911 315.765 13.8011 316.091 13.8011C316.42 13.8011 316.701 13.911 316.932 14.1307C317.167 14.3466 317.284 14.6098 317.284 14.9205C317.284 15.2273 317.167 15.4905 316.932 15.7102C316.701 15.9261 316.42 16.0341 316.091 16.0341ZM326.126 19.5795L324.251 19.7841C324.198 19.5947 324.106 19.4167 323.973 19.25C323.844 19.0833 323.67 18.9489 323.45 18.8466C323.231 18.7443 322.962 18.6932 322.643 18.6932C322.215 18.6932 321.856 18.786 321.564 18.9716C321.276 19.1572 321.134 19.3977 321.138 19.6932C321.134 19.947 321.227 20.1534 321.416 20.3125C321.609 20.4716 321.928 20.6023 322.371 20.7045L323.859 21.0227C324.685 21.2008 325.299 21.483 325.7 21.8693C326.106 22.2557 326.31 22.7614 326.314 23.3864C326.31 23.9356 326.149 24.4205 325.831 24.8409C325.517 25.2576 325.079 25.5833 324.518 25.8182C323.958 26.053 323.314 26.1705 322.587 26.1705C321.518 26.1705 320.659 25.947 320.007 25.5C319.356 25.0492 318.967 24.4223 318.842 23.6193L320.848 23.4261C320.939 23.8201 321.132 24.1174 321.428 24.3182C321.723 24.5189 322.107 24.6193 322.581 24.6193C323.07 24.6193 323.462 24.5189 323.757 24.3182C324.056 24.1174 324.206 23.8693 324.206 23.5739C324.206 23.3239 324.109 23.1174 323.916 22.9545C323.727 22.7917 323.431 22.6667 323.03 22.5795L321.541 22.267C320.704 22.0928 320.085 21.7992 319.683 21.3864C319.282 20.9697 319.083 20.4432 319.087 19.8068C319.083 19.2689 319.229 18.803 319.524 18.4091C319.823 18.0114 320.238 17.7045 320.768 17.4886C321.303 17.2689 321.918 17.1591 322.615 17.1591C323.638 17.1591 324.443 17.3769 325.03 17.8125C325.621 18.2481 325.986 18.8371 326.126 19.5795ZM330.521 26.1761C329.968 26.1761 329.47 26.0777 329.027 25.8807C328.588 25.6799 328.239 25.3845 327.982 24.9943C327.728 24.6042 327.601 24.1231 327.601 23.5511C327.601 23.0587 327.692 22.6515 327.874 22.3295C328.055 22.0076 328.304 21.75 328.618 21.5568C328.932 21.3636 329.286 21.2178 329.68 21.1193C330.078 21.017 330.489 20.9432 330.913 20.8977C331.425 20.8447 331.839 20.7973 332.158 20.7557C332.476 20.7102 332.707 20.642 332.851 20.5511C332.999 20.4564 333.072 20.3106 333.072 20.1136V20.0795C333.072 19.6515 332.946 19.3201 332.692 19.0852C332.438 18.8504 332.072 18.733 331.595 18.733C331.091 18.733 330.692 18.8428 330.396 19.0625C330.105 19.2822 329.908 19.5417 329.805 19.8409L327.885 19.5682C328.036 19.0379 328.286 18.5947 328.635 18.2386C328.983 17.8788 329.41 17.6098 329.913 17.4318C330.417 17.25 330.974 17.1591 331.584 17.1591C332.004 17.1591 332.423 17.2083 332.839 17.3068C333.256 17.4053 333.637 17.5682 333.982 17.7955C334.326 18.0189 334.603 18.3239 334.811 18.7102C335.023 19.0966 335.129 19.5795 335.129 20.1591V26H333.152V24.8011H333.084C332.959 25.0436 332.783 25.2708 332.555 25.483C332.332 25.6913 332.05 25.8598 331.709 25.9886C331.372 26.1136 330.976 26.1761 330.521 26.1761ZM331.055 24.6648C331.468 24.6648 331.826 24.5833 332.129 24.4205C332.432 24.2538 332.665 24.0341 332.828 23.7614C332.995 23.4886 333.078 23.1913 333.078 22.8693V21.8409C333.014 21.8939 332.904 21.9432 332.749 21.9886C332.597 22.0341 332.427 22.0739 332.237 22.108C332.048 22.142 331.86 22.1723 331.675 22.1989C331.489 22.2254 331.328 22.2481 331.192 22.267C330.885 22.3087 330.61 22.3769 330.368 22.4716C330.125 22.5663 329.934 22.6989 329.794 22.8693C329.654 23.036 329.584 23.2519 329.584 23.517C329.584 23.8958 329.722 24.1818 329.999 24.375C330.275 24.5682 330.627 24.6648 331.055 24.6648ZM344.405 26.1534C343.719 26.1534 343.106 25.9773 342.564 25.625C342.022 25.2727 341.594 24.7614 341.28 24.0909C340.965 23.4205 340.808 22.6061 340.808 21.6477C340.808 20.678 340.967 19.8598 341.286 19.1932C341.607 18.5227 342.041 18.017 342.587 17.6761C343.132 17.3314 343.74 17.1591 344.411 17.1591C344.922 17.1591 345.342 17.2462 345.672 17.4205C346.001 17.5909 346.263 17.7973 346.456 18.0398C346.649 18.2784 346.799 18.5038 346.905 18.7159H346.99V14.3636H349.053V26H347.03V24.625H346.905C346.799 24.8371 346.645 25.0625 346.445 25.3011C346.244 25.536 345.979 25.7367 345.649 25.9034C345.32 26.0701 344.905 26.1534 344.405 26.1534ZM344.979 24.4659C345.414 24.4659 345.786 24.3485 346.092 24.1136C346.399 23.875 346.632 23.5436 346.791 23.1193C346.95 22.6951 347.03 22.2008 347.03 21.6364C347.03 21.072 346.95 20.5814 346.791 20.1648C346.636 19.7481 346.405 19.4242 346.098 19.1932C345.795 18.9621 345.422 18.8466 344.979 18.8466C344.52 18.8466 344.138 18.9659 343.831 19.2045C343.524 19.4432 343.293 19.7727 343.138 20.1932C342.982 20.6136 342.905 21.0947 342.905 21.6364C342.905 22.1818 342.982 22.6686 343.138 23.0966C343.297 23.5208 343.53 23.8561 343.837 24.1023C344.147 24.3447 344.528 24.4659 344.979 24.4659ZM355.108 26.1705C354.233 26.1705 353.477 25.9886 352.841 25.625C352.208 25.2576 351.722 24.7386 351.381 24.0682C351.04 23.3939 350.869 22.6004 350.869 21.6875C350.869 20.7898 351.04 20.0019 351.381 19.3239C351.725 18.642 352.206 18.1117 352.824 17.733C353.441 17.3504 354.167 17.1591 355 17.1591C355.538 17.1591 356.045 17.2462 356.523 17.4205C357.004 17.5909 357.428 17.8561 357.795 18.2159C358.167 18.5758 358.458 19.0341 358.67 19.5909C358.883 20.1439 358.989 20.803 358.989 21.5682V22.1989H351.835V20.8125H357.017C357.013 20.4186 356.928 20.0682 356.761 19.7614C356.595 19.4508 356.362 19.2064 356.062 19.0284C355.767 18.8504 355.422 18.7614 355.028 18.7614C354.608 18.7614 354.239 18.8636 353.92 19.0682C353.602 19.2689 353.354 19.5341 353.176 19.8636C353.002 20.1894 352.913 20.5473 352.909 20.9375V22.1477C352.909 22.6553 353.002 23.0909 353.188 23.4545C353.373 23.8144 353.633 24.0909 353.966 24.2841C354.299 24.4735 354.689 24.5682 355.136 24.5682C355.436 24.5682 355.706 24.5265 355.949 24.4432C356.191 24.3561 356.402 24.2292 356.58 24.0625C356.758 23.8958 356.892 23.6894 356.983 23.4432L358.903 23.6591C358.782 24.1667 358.551 24.6098 358.21 24.9886C357.873 25.3636 357.441 25.6553 356.915 25.8636C356.388 26.0682 355.786 26.1705 355.108 26.1705ZM367.209 26.1761C366.656 26.1761 366.158 26.0777 365.714 25.8807C365.275 25.6799 364.927 25.3845 364.669 24.9943C364.415 24.6042 364.288 24.1231 364.288 23.5511C364.288 23.0587 364.379 22.6515 364.561 22.3295C364.743 22.0076 364.991 21.75 365.305 21.5568C365.62 21.3636 365.974 21.2178 366.368 21.1193C366.766 21.017 367.177 20.9432 367.601 20.8977C368.112 20.8447 368.527 20.7973 368.845 20.7557C369.163 20.7102 369.394 20.642 369.538 20.5511C369.686 20.4564 369.76 20.3106 369.76 20.1136V20.0795C369.76 19.6515 369.633 19.3201 369.379 19.0852C369.125 18.8504 368.76 18.733 368.283 18.733C367.779 18.733 367.379 18.8428 367.084 19.0625C366.792 19.2822 366.595 19.5417 366.493 19.8409L364.572 19.5682C364.724 19.0379 364.974 18.5947 365.322 18.2386C365.671 17.8788 366.097 17.6098 366.601 17.4318C367.105 17.25 367.661 17.1591 368.271 17.1591C368.692 17.1591 369.11 17.2083 369.527 17.3068C369.944 17.4053 370.324 17.5682 370.669 17.7955C371.014 18.0189 371.29 18.3239 371.499 18.7102C371.711 19.0966 371.817 19.5795 371.817 20.1591V26H369.839V24.8011H369.771C369.646 25.0436 369.47 25.2708 369.243 25.483C369.019 25.6913 368.737 25.8598 368.396 25.9886C368.059 26.1136 367.663 26.1761 367.209 26.1761ZM367.743 24.6648C368.156 24.6648 368.514 24.5833 368.817 24.4205C369.12 24.2538 369.353 24.0341 369.516 23.7614C369.682 23.4886 369.766 23.1913 369.766 22.8693V21.8409C369.701 21.8939 369.591 21.9432 369.436 21.9886C369.285 22.0341 369.114 22.0739 368.925 22.108C368.735 22.142 368.548 22.1723 368.362 22.1989C368.177 22.2254 368.016 22.2481 367.879 22.267C367.572 22.3087 367.298 22.3769 367.055 22.4716C366.813 22.5663 366.622 22.6989 366.482 22.8693C366.341 23.036 366.271 23.2519 366.271 23.517C366.271 23.8958 366.41 24.1818 366.686 24.375C366.963 24.5682 367.315 24.6648 367.743 24.6648ZM373.885 17.2727H375.942V26.5C375.942 27.1288 375.822 27.6477 375.584 28.0568C375.345 28.4659 375 28.7708 374.55 28.9716C374.099 29.1723 373.552 29.2727 372.908 29.2727C372.832 29.2727 372.762 29.2708 372.697 29.267C372.633 29.267 372.563 29.2652 372.487 29.2614V27.5852C372.544 27.589 372.595 27.5909 372.641 27.5909C372.686 27.5947 372.733 27.5966 372.783 27.5966C373.177 27.5966 373.459 27.5 373.629 27.3068C373.8 27.1174 373.885 26.839 373.885 26.4716V17.2727ZM374.908 16.0341C374.578 16.0341 374.296 15.9261 374.061 15.7102C373.83 15.4905 373.714 15.2273 373.714 14.9205C373.714 14.6098 373.83 14.3466 374.061 14.1307C374.296 13.911 374.578 13.8011 374.908 13.8011C375.233 13.8011 375.512 13.911 375.743 14.1307C375.978 14.3466 376.095 14.6098 376.095 14.9205C376.095 15.2273 375.978 15.4905 375.743 15.7102C375.512 15.9261 375.233 16.0341 374.908 16.0341ZM383.619 22.3295V17.2727H385.676V26H383.682V24.4489H383.591C383.394 24.9375 383.07 25.3371 382.619 25.6477C382.172 25.9583 381.621 26.1136 380.966 26.1136C380.394 26.1136 379.888 25.9867 379.449 25.733C379.013 25.4754 378.672 25.1023 378.426 24.6136C378.18 24.1212 378.057 23.5265 378.057 22.8295V17.2727H380.114V22.5114C380.114 23.0644 380.265 23.5038 380.568 23.8295C380.871 24.1553 381.269 24.3182 381.761 24.3182C382.064 24.3182 382.358 24.2443 382.642 24.0966C382.926 23.9489 383.159 23.7292 383.341 23.4375C383.527 23.142 383.619 22.7727 383.619 22.3295ZM391.03 26.1534C390.344 26.1534 389.731 25.9773 389.189 25.625C388.647 25.2727 388.219 24.7614 387.905 24.0909C387.59 23.4205 387.433 22.6061 387.433 21.6477C387.433 20.678 387.592 19.8598 387.911 19.1932C388.232 18.5227 388.666 18.017 389.212 17.6761C389.757 17.3314 390.365 17.1591 391.036 17.1591C391.547 17.1591 391.967 17.2462 392.297 17.4205C392.626 17.5909 392.888 17.7973 393.081 18.0398C393.274 18.2784 393.424 18.5038 393.53 18.7159H393.615V14.3636H395.678V26H393.655V24.625H393.53C393.424 24.8371 393.27 25.0625 393.07 25.3011C392.869 25.536 392.604 25.7367 392.274 25.9034C391.945 26.0701 391.53 26.1534 391.03 26.1534ZM391.604 24.4659C392.039 24.4659 392.411 24.3485 392.717 24.1136C393.024 23.875 393.257 23.5436 393.416 23.1193C393.575 22.6951 393.655 22.2008 393.655 21.6364C393.655 21.072 393.575 20.5814 393.416 20.1648C393.261 19.7481 393.03 19.4242 392.723 19.1932C392.42 18.9621 392.047 18.8466 391.604 18.8466C391.145 18.8466 390.763 18.9659 390.456 19.2045C390.149 19.4432 389.918 19.7727 389.763 20.1932C389.607 20.6136 389.53 21.0947 389.53 21.6364C389.53 22.1818 389.607 22.6686 389.763 23.0966C389.922 23.5208 390.155 23.8561 390.462 24.1023C390.772 24.3447 391.153 24.4659 391.604 24.4659ZM400.381 26.1761C399.828 26.1761 399.33 26.0777 398.886 25.8807C398.447 25.6799 398.098 25.3845 397.841 24.9943C397.587 24.6042 397.46 24.1231 397.46 23.5511C397.46 23.0587 397.551 22.6515 397.733 22.3295C397.915 22.0076 398.163 21.75 398.477 21.5568C398.792 21.3636 399.146 21.2178 399.54 21.1193C399.938 21.017 400.348 20.9432 400.773 20.8977C401.284 20.8447 401.699 20.7973 402.017 20.7557C402.335 20.7102 402.566 20.642 402.71 20.5511C402.858 20.4564 402.932 20.3106 402.932 20.1136V20.0795C402.932 19.6515 402.805 19.3201 402.551 19.0852C402.297 18.8504 401.932 18.733 401.455 18.733C400.951 18.733 400.551 18.8428 400.256 19.0625C399.964 19.2822 399.767 19.5417 399.665 19.8409L397.744 19.5682C397.896 19.0379 398.146 18.5947 398.494 18.2386C398.843 17.8788 399.269 17.6098 399.773 17.4318C400.277 17.25 400.833 17.1591 401.443 17.1591C401.864 17.1591 402.282 17.2083 402.699 17.3068C403.116 17.4053 403.496 17.5682 403.841 17.7955C404.186 18.0189 404.462 18.3239 404.67 18.7102C404.883 19.0966 404.989 19.5795 404.989 20.1591V26H403.011V24.8011H402.943C402.818 25.0436 402.642 25.2708 402.415 25.483C402.191 25.6913 401.909 25.8598 401.568 25.9886C401.231 26.1136 400.835 26.1761 400.381 26.1761ZM400.915 24.6648C401.328 24.6648 401.686 24.5833 401.989 24.4205C402.292 24.2538 402.525 24.0341 402.688 23.7614C402.854 23.4886 402.938 23.1913 402.938 22.8693V21.8409C402.873 21.8939 402.763 21.9432 402.608 21.9886C402.456 22.0341 402.286 22.0739 402.097 22.108C401.907 22.142 401.72 22.1723 401.534 22.1989C401.348 22.2254 401.188 22.2481 401.051 22.267C400.744 22.3087 400.47 22.3769 400.227 22.4716C399.985 22.5663 399.794 22.6989 399.653 22.8693C399.513 23.036 399.443 23.2519 399.443 23.517C399.443 23.8958 399.581 24.1818 399.858 24.375C400.134 24.5682 400.487 24.6648 400.915 24.6648ZM409.023 22.5795V22.4318C409.027 21.7462 409.091 21.2008 409.216 20.7955C409.345 20.3902 409.527 20.0644 409.761 19.8182C409.996 19.5682 410.282 19.339 410.619 19.1307C410.85 18.9867 411.057 18.8295 411.239 18.6591C411.424 18.4848 411.57 18.2917 411.676 18.0795C411.782 17.8636 411.835 17.6231 411.835 17.358C411.835 17.0587 411.765 16.7992 411.625 16.5795C411.485 16.3598 411.295 16.1894 411.057 16.0682C410.822 15.947 410.559 15.8864 410.267 15.8864C409.998 15.8864 409.742 15.9451 409.5 16.0625C409.261 16.1761 409.063 16.3504 408.903 16.5852C408.748 16.8163 408.661 17.1098 408.642 17.4659H406.619C406.638 16.7462 406.813 16.1439 407.142 15.6591C407.475 15.1742 407.915 14.8106 408.46 14.5682C409.009 14.3258 409.616 14.2045 410.278 14.2045C411.002 14.2045 411.638 14.3314 412.188 14.5852C412.741 14.839 413.17 15.2008 413.477 15.6705C413.788 16.1364 413.943 16.6894 413.943 17.3295C413.943 17.7614 413.873 18.1477 413.733 18.4886C413.597 18.8295 413.402 19.1326 413.148 19.3977C412.894 19.6629 412.593 19.8996 412.244 20.108C411.938 20.2973 411.686 20.4943 411.489 20.6989C411.295 20.9034 411.152 21.1439 411.057 21.4205C410.966 21.6932 410.919 22.0303 410.915 22.4318V22.5795H409.023ZM410.011 26.125C409.67 26.125 409.377 26.0038 409.131 25.7614C408.884 25.5189 408.761 25.2235 408.761 24.875C408.761 24.5341 408.884 24.2424 409.131 24C409.377 23.7576 409.67 23.6364 410.011 23.6364C410.348 23.6364 410.64 23.7576 410.886 24C411.136 24.2424 411.261 24.5341 411.261 24.875C411.261 25.1061 411.203 25.3163 411.085 25.5057C410.972 25.6951 410.82 25.8466 410.631 25.9602C410.445 26.0701 410.239 26.125 410.011 26.125Z" fill="white"/>
</svg>
