<svg width="159" height="40" viewBox="0 0 159 40" fill="none" xmlns="http://www.w3.org/2000/svg">
<path fill-rule="evenodd" clip-rule="evenodd" d="M0.90083 17.8313L17.9058 0.911322C19.1069 -0.303774 21.0777 -0.303774 22.2788 0.911322L39.2648 17.8313C40.4661 19.0278 40.4661 20.9721 39.2648 22.1688L22.2788 39.0886C21.0777 40.3038 19.1069 40.3038 17.9058 39.0886L0.90083 22.1688C-0.300277 20.9721 -0.300277 19.0278 0.90083 17.8313Z" fill="white"/>
<path fill-rule="evenodd" clip-rule="evenodd" d="M20.0828 39.2943C19.4824 39.2943 18.8629 39.0513 18.3937 38.6026L1.40752 21.664C0.957127 21.2153 0.713196 20.5983 0.713196 20L8.03309 20.4113L8.50234 28.3571L8.95273 20.4674L19.0129 21.0657L19.576 30.5071L12.2937 30.9371L19.6136 31.3671L20.0828 39.2943Z" fill="#00C0F3"/>
<path fill-rule="evenodd" clip-rule="evenodd" d="M30.6123 29.7967L30.5371 29.8714L20.6082 30.451L21.1713 21.0657L31.1566 20.4861L30.6123 29.7967ZM39.4524 20C39.4524 20.5983 39.2273 21.2153 38.7579 21.664L32.6393 27.7775L32.2076 20.4113L39.4524 20ZM28.5101 31.8719L21.7719 38.6026C21.3027 39.0513 20.7021 39.2943 20.0827 39.2943L20.5521 31.4232L28.5101 31.8719Z" fill="#16AEBD"/>
<path fill-rule="evenodd" clip-rule="evenodd" d="M20.0827 0.705566C20.7021 0.705566 21.3027 0.94866 21.7719 1.39754L38.7579 18.336C39.2273 18.7847 39.4524 19.4016 39.4524 19.9999L32.1513 19.5887L31.6821 11.6429L31.2129 19.5326L21.1713 18.9343L20.6082 9.49279L27.8907 9.06282L20.5521 8.63285L20.0827 0.705566Z" fill="#6DC8BF"/>
<path fill-rule="evenodd" clip-rule="evenodd" d="M11.6555 8.12791L18.3937 1.39754C18.8629 0.94866 19.4824 0.705566 20.0828 0.705566L19.6324 8.57673L11.6555 8.12791ZM9.57217 10.2033L9.6285 10.1285L19.5572 9.54891L19.0129 18.9343L9.00906 19.5139L9.57217 10.2033ZM1.40752 18.336L7.5451 12.2224L7.97676 19.5887L0.713196 19.9999C0.713196 19.4016 0.957127 18.7847 1.40752 18.336Z" fill="#B1DED3"/>
<path d="M64.3861 31.539H58.3787C56.0582 31.539 54.2584 31.3661 53.0004 30.999C51.7643 30.6534 50.7016 30.0268 49.8342 29.1195C47.9257 27.1322 46.9714 24.3454 46.9714 20.7594C46.9714 16.8062 48.1859 13.7819 50.6366 11.7297C51.4172 11.0815 52.2415 10.628 53.1088 10.3686C53.9764 10.1096 55.1258 9.97998 56.5787 9.97998H64.3861V13.8251H58.3787C56.8174 13.8251 55.6679 13.9331 54.9522 14.1491C54.2149 14.3651 53.6077 14.7756 53.1305 15.4021C52.8052 15.8341 52.5884 16.2662 52.48 16.6767C52.3716 17.0871 52.2848 17.8215 52.198 18.9017H64.3861V22.7253H52.198C52.3499 24.5614 52.892 25.8575 53.8462 26.5921C54.7788 27.3265 56.3618 27.6938 58.5739 27.6938H64.3861V31.539ZM82.3859 26.5921C82.3859 27.5641 82.1474 28.4715 81.6486 29.3355C81.1715 30.1997 80.5642 30.8045 79.8269 31.1285C79.1981 31.4094 78.0053 31.539 76.2703 31.539H67.292V28.1691H75.0342C76.0317 28.1691 76.704 28.1475 77.0511 28.1042C77.7668 28.0178 78.1353 27.5858 78.1353 26.8081C78.1353 26.1169 77.8533 25.6632 77.2896 25.4472C76.986 25.3392 76.3788 25.2959 75.4896 25.2959H72.8656C71.0439 25.2959 69.6993 24.9719 68.8535 24.3239C67.6607 23.3948 67.0751 22.0772 67.0751 20.3705C67.0751 18.7288 67.6823 17.4542 68.8968 16.5469C69.5475 16.0502 70.7185 15.7909 72.4101 15.7909H81.6703V19.1608H73.9717C73.1258 19.1608 72.562 19.2041 72.3017 19.2905C71.8029 19.485 71.5644 19.917 71.5644 20.5434C71.5644 21.2778 71.868 21.7316 72.4752 21.926C72.8005 22.0338 73.4294 22.0988 74.3837 22.0988H76.9209C78.6558 22.0988 80.0005 22.466 80.9547 23.2437C81.909 24.0214 82.3859 25.1448 82.3859 26.5921ZM95.1377 31.539H91.9715C90.0631 31.539 88.7186 31.107 87.9378 30.2213C87.1353 29.3355 86.745 27.8018 86.745 25.6199V19.1608H83.9907V15.7909H86.745V9.97998H91.1041V15.7909H95.1377V19.1608H91.1041V24.8639C91.1041 26.2249 91.2559 27.1105 91.5378 27.5425C91.8415 27.9531 92.4487 28.1691 93.4028 28.1691H95.1377V31.539ZM105.352 21.9691V25.3176H103.292C102.208 25.3176 101.666 25.8145 101.666 26.7865C101.666 27.7154 102.446 28.1691 104.008 28.1691H105.352V31.539H104.225C102.772 31.539 101.882 31.539 101.535 31.5174C100.473 31.4094 99.6486 31.1285 99.0631 30.6964C97.8486 29.8108 97.2414 28.5363 97.2414 26.8512C97.2414 25.7712 97.5017 24.8206 98.0438 23.9782C98.5642 23.1573 99.2583 22.5956 100.126 22.3148C100.863 22.0771 102.056 21.9691 103.704 21.9691H105.352ZM105.352 15.7909V19.1608H98.3909V15.7909H105.352ZM105.352 10.8872V14.0411H103.184L105.352 10.8872ZM130.639 31.539H124.697C123.114 31.539 121.856 31.3877 120.923 31.0637C119.969 30.7397 119.145 30.1781 118.429 29.3788C117.063 27.8665 116.391 25.9008 116.391 23.503C116.391 20.781 117.193 18.7288 118.82 17.3462C120.034 16.3093 121.986 15.7909 124.697 15.7909H130.639V19.1608H125.456C123.829 19.1608 122.637 19.5065 121.921 20.1978C121.205 20.889 120.837 22.0338 120.837 23.6108C120.837 25.2096 121.227 26.3761 122.03 27.0889C122.832 27.8018 124.133 28.1691 125.933 28.1691H130.639V31.539ZM138.381 14.1707H134.022V9.97998H138.381V14.1707ZM138.381 31.539H134.022V15.7909H138.381V31.539ZM105.352 14.0411V10.8872L105.981 9.97998H109.972L105.721 14.0411H105.352ZM105.352 31.539V28.1691H109.039V25.3176H105.352V21.9691H109.039V21.71C109.039 20.7378 108.801 20.0898 108.323 19.7225C107.846 19.3552 106.979 19.1608 105.721 19.1608H105.352V15.7909H105.721C107.413 15.7909 108.54 15.8558 109.104 15.9637C110.275 16.1797 111.229 16.6982 111.967 17.5406C112.921 18.6423 113.398 20.349 113.398 22.6604V31.539H105.352ZM149.962 18.9017C149.94 18.9017 149.919 18.9017 149.875 18.9017C147.316 18.9017 146.037 20.4787 146.037 23.6757C146.037 26.8298 147.36 28.4067 149.962 28.4282V31.755C149.919 31.755 149.875 31.755 149.81 31.755C147.251 31.755 145.256 31.0421 143.781 29.5948C142.328 28.1475 141.591 26.1601 141.591 23.6326C141.591 21.1698 142.35 19.2041 143.846 17.7566C145.364 16.3093 147.381 15.5749 149.94 15.5749H149.962V18.9017ZM153.887 23.6757C153.887 20.5218 152.565 18.9448 149.962 18.9017V15.5749C152.586 15.5749 154.646 16.3093 156.121 17.7566C157.596 19.2041 158.333 21.2347 158.333 23.8268C158.333 26.2896 157.574 28.2338 156.056 29.6379C154.56 31.0421 152.543 31.7334 149.962 31.755V28.4282C149.984 28.4282 149.984 28.4282 150.005 28.4282C152.586 28.4282 153.887 26.8512 153.887 23.6757Z" fill="black"/>
</svg>
